<svg width="251" height="78" viewBox="0 0 251 78" fill="none" xmlns="http://www.w3.org/2000/svg">
<path d="M44.794 54.154C44.794 55.302 44.822 56.212 44.878 56.884C44.962 57.528 45.116 58.032 45.34 58.396C45.592 58.732 45.956 58.956 46.432 59.068C46.936 59.18 47.608 59.264 48.448 59.32V61H35.218V59.32C36.03 59.264 36.674 59.18 37.15 59.068C37.654 58.956 38.032 58.732 38.284 58.396C38.564 58.06 38.746 57.584 38.83 56.968C38.914 56.352 38.956 55.512 38.956 54.448V49.198C38.956 47.546 38.928 46.216 38.872 45.208C38.816 44.172 38.746 43.472 38.662 43.108C38.578 42.744 38.466 42.45 38.326 42.226C38.186 41.974 37.976 41.792 37.696 41.68C37.416 41.54 37.066 41.456 36.646 41.428C36.226 41.372 35.694 41.344 35.05 41.344V39.916L43.156 38.32L43.702 42.016H43.87C44.794 40.84 45.886 39.93 47.146 39.286C48.406 38.642 49.792 38.32 51.304 38.32C53.096 38.32 54.538 38.572 55.63 39.076C56.75 39.552 57.744 40.364 58.612 41.512C59.088 42.156 59.508 42.996 59.872 44.032C60.236 45.04 60.418 46.44 60.418 48.232V54.154C60.418 55.302 60.446 56.212 60.502 56.884C60.586 57.528 60.74 58.032 60.964 58.396C61.216 58.732 61.58 58.956 62.056 59.068C62.532 59.18 63.176 59.264 63.988 59.32V61H50.842V59.32C51.682 59.292 52.34 59.222 52.816 59.11C53.32 58.97 53.698 58.732 53.95 58.396C54.202 58.06 54.37 57.584 54.454 56.968C54.538 56.324 54.58 55.484 54.58 54.448V48.736C54.58 47.308 54.496 46.104 54.328 45.124C54.16 44.144 53.88 43.36 53.488 42.772C53.124 42.156 52.634 41.722 52.018 41.47C51.402 41.19 50.632 41.05 49.708 41.05C48.812 41.05 48.042 41.302 47.398 41.806C46.754 42.31 46.194 43.01 45.718 43.906C45.466 44.41 45.242 45.068 45.046 45.88C44.878 46.664 44.794 47.49 44.794 48.358V54.154ZM84.0456 45.628C84.0456 44.508 84.0176 43.626 83.9616 42.982C83.9056 42.31 83.7516 41.806 83.4996 41.47C83.2476 41.106 82.8696 40.868 82.3656 40.756C81.8896 40.616 81.2316 40.504 80.3916 40.42V38.74H89.8836V51.466C89.8836 53.174 89.8976 54.518 89.9256 55.498C89.9816 56.45 90.0656 57.164 90.1776 57.64C90.2616 58.004 90.3596 58.298 90.4716 58.522C90.5836 58.718 90.7656 58.886 91.0176 59.026C91.2696 59.138 91.6056 59.222 92.0256 59.278C92.4736 59.306 93.0476 59.32 93.7476 59.32V60.958L85.3896 61.462L84.9276 57.724H84.7596C84.0316 58.9 83.0096 59.81 81.6936 60.454C80.3776 61.098 78.9076 61.42 77.2836 61.42C74.2876 61.42 72.0056 60.356 70.4376 58.228C69.2336 56.604 68.6316 54.294 68.6316 51.298V45.628C68.6316 44.48 68.6036 43.584 68.5476 42.94C68.4916 42.268 68.3376 41.764 68.0856 41.428C67.8616 41.092 67.5116 40.868 67.0356 40.756C66.5596 40.616 65.9016 40.504 65.0616 40.42V38.74H74.4696V50.626C74.4696 53.454 74.8196 55.512 75.5196 56.8C76.2196 58.06 77.3396 58.69 78.8796 58.69C80.5316 58.69 81.8056 57.934 82.7016 56.422C83.5976 54.966 84.0456 52.824 84.0456 49.996V45.628ZM105.087 54.154C105.087 55.302 105.115 56.212 105.171 56.884C105.255 57.528 105.409 58.032 105.633 58.396C105.885 58.732 106.249 58.956 106.725 59.068C107.229 59.18 107.901 59.264 108.741 59.32V61H95.511V59.32C96.323 59.264 96.967 59.18 97.443 59.068C97.947 58.956 98.325 58.732 98.577 58.396C98.857 58.06 99.039 57.584 99.123 56.968C99.207 56.352 99.249 55.512 99.249 54.448V49.198C99.249 47.546 99.221 46.216 99.165 45.208C99.109 44.172 99.039 43.472 98.955 43.108C98.871 42.744 98.759 42.45 98.619 42.226C98.479 41.974 98.269 41.792 97.989 41.68C97.709 41.54 97.359 41.456 96.939 41.428C96.519 41.372 95.987 41.344 95.343 41.344V39.916L103.449 38.32L103.995 42.016H104.163C105.087 40.84 106.179 39.93 107.439 39.286C108.699 38.642 110.085 38.32 111.597 38.32C113.389 38.32 114.831 38.572 115.923 39.076C117.043 39.552 118.037 40.364 118.905 41.512C119.381 42.156 119.801 42.996 120.165 44.032C120.529 45.04 120.711 46.44 120.711 48.232V54.154C120.711 55.302 120.739 56.212 120.795 56.884C120.879 57.528 121.033 58.032 121.257 58.396C121.509 58.732 121.873 58.956 122.349 59.068C122.825 59.18 123.469 59.264 124.281 59.32V61H111.135V59.32C111.975 59.292 112.633 59.222 113.109 59.11C113.613 58.97 113.991 58.732 114.243 58.396C114.495 58.06 114.663 57.584 114.747 56.968C114.831 56.324 114.873 55.484 114.873 54.448V48.736C114.873 47.308 114.789 46.104 114.621 45.124C114.453 44.144 114.173 43.36 113.781 42.772C113.417 42.156 112.927 41.722 112.311 41.47C111.695 41.19 110.925 41.05 110.001 41.05C109.105 41.05 108.335 41.302 107.691 41.806C107.047 42.31 106.487 43.01 106.011 43.906C105.759 44.41 105.535 45.068 105.339 45.88C105.171 46.664 105.087 47.49 105.087 48.358V54.154ZM125.859 41.05V39.16C127.539 38.684 128.939 37.97 130.059 37.018C131.207 36.038 132.061 34.918 132.621 33.658H134.763V38.74H139.593V41.05H134.763V53.944C134.763 55.68 134.945 56.912 135.309 57.64C135.701 58.368 136.345 58.732 137.241 58.732C138.333 58.732 139.159 58.228 139.719 57.22L140.601 58.438C139.817 60.426 137.969 61.42 135.057 61.42C133.125 61.42 131.613 60.972 130.521 60.076C129.457 59.18 128.925 57.92 128.925 56.296V41.05H125.859ZM151.64 54.112C151.64 55.232 151.682 56.128 151.766 56.8C151.85 57.472 152.018 57.99 152.27 58.354C152.522 58.718 152.886 58.97 153.362 59.11C153.838 59.222 154.482 59.292 155.294 59.32V61H142.064V59.32C142.848 59.292 143.478 59.208 143.954 59.068C144.458 58.9 144.836 58.648 145.088 58.312C145.368 57.948 145.55 57.458 145.634 56.842C145.746 56.198 145.802 55.386 145.802 54.406V49.24C145.802 47.616 145.774 46.286 145.718 45.25C145.662 44.186 145.592 43.458 145.508 43.066C145.368 42.366 145.046 41.904 144.542 41.68C144.066 41.456 143.184 41.344 141.896 41.344V39.916L151.64 38.32V54.112ZM145.466 29.416C145.466 28.492 145.774 27.722 146.39 27.106C147.034 26.462 147.804 26.14 148.7 26.14C149.624 26.14 150.394 26.462 151.01 27.106C151.654 27.722 151.976 28.492 151.976 29.416C151.976 30.312 151.654 31.082 151.01 31.726C150.394 32.342 149.624 32.65 148.7 32.65C147.804 32.65 147.034 32.342 146.39 31.726C145.774 31.082 145.466 30.312 145.466 29.416ZM175.551 45.628C175.551 44.508 175.523 43.626 175.467 42.982C175.411 42.31 175.257 41.806 175.005 41.47C174.753 41.106 174.375 40.868 173.871 40.756C173.395 40.616 172.737 40.504 171.897 40.42V38.74H181.389V51.466C181.389 53.174 181.403 54.518 181.431 55.498C181.487 56.45 181.571 57.164 181.683 57.64C181.767 58.004 181.865 58.298 181.977 58.522C182.089 58.718 182.271 58.886 182.523 59.026C182.775 59.138 183.111 59.222 183.531 59.278C183.979 59.306 184.553 59.32 185.253 59.32V60.958L176.895 61.462L176.433 57.724H176.265C175.537 58.9 174.515 59.81 173.199 60.454C171.883 61.098 170.413 61.42 168.789 61.42C165.793 61.42 163.511 60.356 161.943 58.228C160.739 56.604 160.137 54.294 160.137 51.298V45.628C160.137 44.48 160.109 43.584 160.053 42.94C159.997 42.268 159.843 41.764 159.591 41.428C159.367 41.092 159.017 40.868 158.541 40.756C158.065 40.616 157.407 40.504 156.567 40.42V38.74H165.975V50.626C165.975 53.454 166.325 55.512 167.025 56.8C167.725 58.06 168.845 58.69 170.385 58.69C172.037 58.69 173.311 57.934 174.207 56.422C175.103 54.966 175.551 52.824 175.551 49.996V45.628ZM196.635 54.07C196.635 55.246 196.663 56.17 196.719 56.842C196.775 57.514 196.929 58.032 197.181 58.396C197.433 58.732 197.797 58.956 198.273 59.068C198.749 59.18 199.407 59.264 200.247 59.32V61H186.975V59.32C187.815 59.264 188.487 59.18 188.991 59.068C189.495 58.956 189.873 58.732 190.125 58.396C190.377 58.06 190.545 57.584 190.629 56.968C190.713 56.324 190.755 55.47 190.755 54.406V49.198C190.755 47.602 190.727 46.272 190.671 45.208C190.643 44.144 190.573 43.416 190.461 43.024C190.377 42.66 190.265 42.38 190.125 42.184C190.013 41.96 189.817 41.792 189.537 41.68C189.285 41.54 188.949 41.456 188.529 41.428C188.109 41.372 187.563 41.344 186.891 41.344V39.916L194.997 38.32L195.501 41.974H195.753C196.929 40.658 198.105 39.72 199.281 39.16C200.485 38.6 201.871 38.32 203.439 38.32C205.287 38.32 206.813 38.642 208.017 39.286C209.221 39.93 210.131 40.854 210.747 42.058H210.915C211.923 40.882 213.127 39.972 214.527 39.328C215.927 38.656 217.425 38.32 219.021 38.32C220.701 38.32 222.157 38.53 223.389 38.95C224.649 39.37 225.629 39.972 226.329 40.756C226.889 41.4 227.295 42.24 227.547 43.276C227.827 44.312 227.967 45.754 227.967 47.602V54.07C227.967 55.218 227.995 56.128 228.051 56.8C228.135 57.472 228.303 57.99 228.555 58.354C228.807 58.718 229.171 58.956 229.647 59.068C230.123 59.18 230.781 59.264 231.621 59.32V61H218.349V59.32C219.189 59.292 219.847 59.222 220.323 59.11C220.827 58.97 221.205 58.732 221.457 58.396C221.737 58.032 221.905 57.542 221.961 56.926C222.045 56.31 222.087 55.47 222.087 54.406V48.904C222.087 47.448 222.003 46.216 221.835 45.208C221.667 44.2 221.401 43.388 221.037 42.772C220.673 42.156 220.183 41.722 219.567 41.47C218.979 41.19 218.251 41.05 217.383 41.05C216.403 41.05 215.591 41.288 214.947 41.764C214.331 42.24 213.813 42.856 213.393 43.612C212.665 44.928 212.301 46.566 212.301 48.526V54.07C212.301 55.218 212.329 56.128 212.385 56.8C212.441 57.472 212.595 57.99 212.847 58.354C213.099 58.718 213.463 58.956 213.939 59.068C214.443 59.18 215.129 59.264 215.997 59.32V61H202.683V59.32C203.523 59.264 204.181 59.18 204.657 59.068C205.161 58.956 205.539 58.732 205.791 58.396C206.071 58.06 206.239 57.584 206.295 56.968C206.379 56.324 206.421 55.47 206.421 54.406V48.904C206.421 47.448 206.337 46.216 206.169 45.208C206.001 44.2 205.721 43.388 205.329 42.772C204.965 42.156 204.475 41.722 203.859 41.47C203.243 41.19 202.473 41.05 201.549 41.05C200.625 41.05 199.855 41.274 199.239 41.722C198.651 42.17 198.161 42.772 197.769 43.528C197.405 44.2 197.125 44.97 196.929 45.838C196.733 46.706 196.635 47.602 196.635 48.526V54.07ZM234.538 58.312C234.538 57.416 234.832 56.66 235.42 56.044C236.036 55.4 236.792 55.078 237.688 55.078C238.612 55.078 239.382 55.4 239.998 56.044C240.614 56.66 240.922 57.416 240.922 58.312C240.922 59.18 240.614 59.922 239.998 60.538C239.382 61.126 238.612 61.42 237.688 61.42C236.792 61.42 236.036 61.126 235.42 60.538C234.832 59.922 234.538 59.18 234.538 58.312Z" fill="#1C1C1C"/>
<rect width="94" height="78" fill="#1C1C1C"/>
<path d="M44.794 54.154C44.794 55.302 44.822 56.212 44.878 56.884C44.962 57.528 45.116 58.032 45.34 58.396C45.592 58.732 45.956 58.956 46.432 59.068C46.936 59.18 47.608 59.264 48.448 59.32V61H35.218V59.32C36.03 59.264 36.674 59.18 37.15 59.068C37.654 58.956 38.032 58.732 38.284 58.396C38.564 58.06 38.746 57.584 38.83 56.968C38.914 56.352 38.956 55.512 38.956 54.448V49.198C38.956 47.546 38.928 46.216 38.872 45.208C38.816 44.172 38.746 43.472 38.662 43.108C38.578 42.744 38.466 42.45 38.326 42.226C38.186 41.974 37.976 41.792 37.696 41.68C37.416 41.54 37.066 41.456 36.646 41.428C36.226 41.372 35.694 41.344 35.05 41.344V39.916L43.156 38.32L43.702 42.016H43.87C44.794 40.84 45.886 39.93 47.146 39.286C48.406 38.642 49.792 38.32 51.304 38.32C53.096 38.32 54.538 38.572 55.63 39.076C56.75 39.552 57.744 40.364 58.612 41.512C59.088 42.156 59.508 42.996 59.872 44.032C60.236 45.04 60.418 46.44 60.418 48.232V54.154C60.418 55.302 60.446 56.212 60.502 56.884C60.586 57.528 60.74 58.032 60.964 58.396C61.216 58.732 61.58 58.956 62.056 59.068C62.532 59.18 63.176 59.264 63.988 59.32V61H50.842V59.32C51.682 59.292 52.34 59.222 52.816 59.11C53.32 58.97 53.698 58.732 53.95 58.396C54.202 58.06 54.37 57.584 54.454 56.968C54.538 56.324 54.58 55.484 54.58 54.448V48.736C54.58 47.308 54.496 46.104 54.328 45.124C54.16 44.144 53.88 43.36 53.488 42.772C53.124 42.156 52.634 41.722 52.018 41.47C51.402 41.19 50.632 41.05 49.708 41.05C48.812 41.05 48.042 41.302 47.398 41.806C46.754 42.31 46.194 43.01 45.718 43.906C45.466 44.41 45.242 45.068 45.046 45.88C44.878 46.664 44.794 47.49 44.794 48.358V54.154ZM84.0456 45.628C84.0456 44.508 84.0176 43.626 83.9616 42.982C83.9056 42.31 83.7516 41.806 83.4996 41.47C83.2476 41.106 82.8696 40.868 82.3656 40.756C81.8896 40.616 81.2316 40.504 80.3916 40.42V38.74H89.8836V51.466C89.8836 53.174 89.8976 54.518 89.9256 55.498C89.9816 56.45 90.0656 57.164 90.1776 57.64C90.2616 58.004 90.3596 58.298 90.4716 58.522C90.5836 58.718 90.7656 58.886 91.0176 59.026C91.2696 59.138 91.6056 59.222 92.0256 59.278C92.4736 59.306 93.0476 59.32 93.7476 59.32V60.958L85.3896 61.462L84.9276 57.724H84.7596C84.0316 58.9 83.0096 59.81 81.6936 60.454C80.3776 61.098 78.9076 61.42 77.2836 61.42C74.2876 61.42 72.0056 60.356 70.4376 58.228C69.2336 56.604 68.6316 54.294 68.6316 51.298V45.628C68.6316 44.48 68.6036 43.584 68.5476 42.94C68.4916 42.268 68.3376 41.764 68.0856 41.428C67.8616 41.092 67.5116 40.868 67.0356 40.756C66.5596 40.616 65.9016 40.504 65.0616 40.42V38.74H74.4696V50.626C74.4696 53.454 74.8196 55.512 75.5196 56.8C76.2196 58.06 77.3396 58.69 78.8796 58.69C80.5316 58.69 81.8056 57.934 82.7016 56.422C83.5976 54.966 84.0456 52.824 84.0456 49.996V45.628Z" fill="white"/>
</svg>
